<?xml version="1.0" encoding="UTF-8"?>
<svg xmlns="http://www.w3.org/2000/svg" xmlns:xlink="http://www.w3.org/1999/xlink" version="1.1" id="Ebene_1" x="0px" y="0px" viewBox="212 379.9 170.1 83.6" style="enable-background:new 212 379.9 170.1 83.6;" xml:space="preserve">
<style type="text/css">
	.st0{clip-path:url(#SVGID_2_);fill-rule:evenodd;clip-rule:evenodd;fill:#00592E;}
	.st1{clip-path:url(#SVGID_2_);fill-rule:evenodd;clip-rule:evenodd;fill:#C0CC00;}
</style>
<g>
	<g>
		<defs>
			<rect id="SVGID_1_" x="212" y="379.9" width="170.1" height="83.6"></rect>
		</defs>
		<clipPath id="SVGID_2_">
			<use xlink:href="#SVGID_1_" style="overflow:visible;"></use>
		</clipPath>
		<path class="st0" d="M285.5,409v-6.6c0-0.6-0.1-0.9-0.2-1.1c-0.1-0.2-0.4-0.3-0.8-0.3c-0.4,0-0.7,0.1-1,0.3    c-0.3,0.2-0.7,0.5-1,0.8v6.9h-2v-6.5c0-0.6-0.1-1-0.2-1.2c-0.1-0.2-0.4-0.3-0.8-0.3c-0.3,0-0.6,0.1-0.9,0.2    c-0.3,0.2-0.7,0.4-1,0.7v7.1h-2v-6.8c0-0.6,0-1.1-0.1-1.5c-0.1-0.4-0.1-0.7-0.3-0.9l1.9-0.5c0.2,0.3,0.3,0.7,0.3,1.2    c0.4-0.4,0.8-0.7,1.2-0.9c0.4-0.2,0.9-0.3,1.3-0.3c0.4,0,0.8,0.1,1.2,0.3c0.4,0.2,0.7,0.6,1.1,1.1c0.5-0.5,0.9-0.8,1.4-1.1    c0.5-0.2,0.9-0.3,1.5-0.3c0.8,0,1.4,0.2,1.8,0.7c0.4,0.4,0.7,1.1,0.7,2.1v7H285.5L285.5,409z M279.9,416.5    c-0.2-0.1-0.4-0.2-0.6-0.3c-0.2-0.1-0.3-0.1-0.5-0.1c-0.4,0-0.6,0.1-0.9,0.3c-0.2,0.2-0.3,0.6-0.3,1v1.5h2.5l-0.5,1.4h-1.9v8.1    h-2.1v-8.1h-0.9v-1.4h0.9c0-0.1,0-0.2,0-0.5c0-0.2,0-0.6,0-1c0-1,0.3-1.7,0.8-2.2c0.5-0.5,1.2-0.7,2.1-0.7c0.8,0,1.5,0.2,2.1,0.5    L279.9,416.5L279.9,416.5z M287.6,428.8c-0.3-0.1-0.5-0.3-0.8-0.5c-0.2-0.2-0.4-0.5-0.5-0.8c-0.4,0.4-0.8,0.7-1.2,0.9    c-0.4,0.2-0.9,0.3-1.4,0.3c-1.1,0-1.9-0.3-2.4-0.8c-0.5-0.5-0.8-1.2-0.8-2.1c0-1.1,0.4-1.9,1.2-2.5c0.8-0.6,2-0.8,3.5-0.8h0.6V422    c0-0.6-0.1-1-0.2-1.3c-0.2-0.3-0.5-0.4-1.1-0.4c-0.3,0-0.6,0-0.9,0.1c-0.3,0.1-0.6,0.2-0.9,0.3c-0.3,0.1-0.5,0.2-0.7,0.4l-0.4,0.3    l-0.9-1.5c0.7-0.5,1.4-0.8,2-1c0.6-0.2,1.3-0.3,2-0.3c1.5,0,2.5,0.5,2.9,1.6c0,0.1,0.1,0.2,0.1,0.3c0,0.1,0,0.3,0,0.5    c0,0.2,0,0.4,0,0.6v0.9l0,2.7c0,0.3,0,0.6,0,0.8c0,0.2,0.1,0.4,0.1,0.6c0.1,0.2,0.1,0.3,0.3,0.4c0.1,0.1,0.3,0.3,0.4,0.4    L287.6,428.8L287.6,428.8z M285.9,424c0,0-0.1,0-0.2,0c-0.1,0-0.2,0-0.2,0c-0.5,0-0.9,0-1.3,0.1c-0.3,0.1-0.6,0.2-0.8,0.3    s-0.4,0.3-0.4,0.6c-0.1,0.2-0.1,0.5-0.1,0.8c0,0.5,0.1,0.8,0.3,1.1c0.2,0.3,0.6,0.4,1,0.4c0.3,0,0.6-0.1,0.9-0.3    c0.3-0.2,0.6-0.4,0.8-0.7L285.9,424L285.9,424z M291,428.4v-11.1c0-0.5,0-0.9,0-1.2c0-0.4-0.1-0.7-0.2-1.1l2.1-0.5    c0.1,0.3,0.1,0.7,0.1,1.1c0,0.4,0,0.9,0,1.4v11.4H291L291,428.4z M296.8,428.4l-3.6-5.4l2.8-4.1h2.5l-3.3,4l4,5.5H296.8    L296.8,428.4z M306.9,428.7c-0.2-0.2-0.4-0.3-0.5-0.5c-0.1-0.2-0.2-0.4-0.3-0.7c-0.7,0.8-1.6,1.2-2.7,1.2c-0.5,0-1-0.1-1.4-0.3    c-0.4-0.2-0.7-0.4-1-0.7c-0.2-0.2-0.3-0.5-0.4-0.8c-0.1-0.3-0.1-0.8-0.1-1.4v-6.5l2-0.4v6.4c0,0.3,0,0.6,0,0.8    c0,0.3,0.1,0.5,0.2,0.6c0.1,0.2,0.2,0.3,0.4,0.4c0.2,0.1,0.4,0.2,0.7,0.2c0.4,0,0.7-0.1,1.1-0.4c0.4-0.2,0.6-0.5,0.8-0.9v-6.8    l2-0.4v7.2c0,0.3,0,0.6,0.1,0.8c0.1,0.2,0.1,0.4,0.2,0.6c0.1,0.2,0.1,0.3,0.2,0.3c0.1,0.1,0.1,0.1,0.1,0.2L306.9,428.7    L306.9,428.7z M314.2,428.4c-0.4,0.2-0.8,0.2-1.2,0.2c-0.5,0-0.9-0.1-1.2-0.3c-0.3-0.2-0.5-0.5-0.6-0.7c-0.1-0.3-0.2-0.6-0.2-0.9    c0-0.3,0-0.6,0-0.8v-8.1c0-0.3,0-0.6,0-0.9c0-0.3,0-0.5,0-0.7c0-0.2,0-0.4-0.1-0.6c0-0.2,0-0.4-0.1-0.6l2.1-0.5    c0.1,0.3,0.1,0.6,0.1,1.1c0,0.4,0,0.9,0,1.6v8.1c0,0.3,0,0.6,0,0.8c0,0.2,0,0.4,0,0.5c0,0.1,0,0.2,0.1,0.3c0,0.1,0.1,0.1,0.1,0.2    c0.1,0.1,0.2,0.2,0.3,0.2c0.1,0,0.3,0,0.4,0L314.2,428.4L314.2,428.4z M320.5,428.3c-0.6,0.3-1.2,0.4-1.9,0.4    c-0.5,0-0.9-0.1-1.2-0.2c-0.3-0.1-0.6-0.3-0.8-0.5c-0.2-0.2-0.3-0.5-0.4-0.8c-0.1-0.3-0.1-0.6-0.1-1v-5.9h-1.1v-1.4h1.1    c0-0.4,0-0.8,0-1.2c0-0.4,0-0.8,0.1-1.1l2.1-0.5c-0.1,0.4-0.1,0.8-0.1,1.4c0,0.5,0,1,0,1.5h2.3l-0.5,1.4h-1.8v5.4    c0,0.6,0.1,1,0.2,1.2c0.2,0.2,0.5,0.3,0.9,0.3c0.3,0,0.5-0.1,0.9-0.2L320.5,428.3L320.5,428.3z M328.7,428.8    c-0.3-0.1-0.5-0.3-0.8-0.5c-0.2-0.2-0.4-0.5-0.5-0.8c-0.4,0.4-0.8,0.7-1.2,0.9c-0.4,0.2-0.9,0.3-1.4,0.3c-1.1,0-1.9-0.3-2.4-0.8    c-0.5-0.5-0.8-1.2-0.8-2.1c0-1.1,0.4-1.9,1.2-2.5c0.8-0.6,2-0.8,3.5-0.8h0.6V422c0-0.6-0.1-1-0.2-1.3c-0.2-0.3-0.5-0.4-1.1-0.4    c-0.3,0-0.6,0-0.9,0.1c-0.3,0.1-0.6,0.2-0.9,0.3c-0.3,0.1-0.5,0.2-0.7,0.4l-0.4,0.3l-0.9-1.5c0.7-0.5,1.4-0.8,2-1    c0.6-0.2,1.3-0.3,2-0.3c1.5,0,2.5,0.5,2.9,1.6c0,0.1,0.1,0.2,0.1,0.3c0,0.1,0,0.3,0,0.5c0,0.2,0,0.4,0,0.6v0.9l0,2.7    c0,0.3,0,0.6,0,0.8c0,0.2,0.1,0.4,0.1,0.6c0.1,0.2,0.1,0.3,0.3,0.4c0.1,0.1,0.3,0.3,0.4,0.4L328.7,428.8L328.7,428.8z M327,424    c0,0-0.1,0-0.2,0c-0.1,0-0.2,0-0.2,0c-0.5,0-0.9,0-1.3,0.1c-0.3,0.1-0.6,0.2-0.8,0.3c-0.2,0.2-0.4,0.3-0.4,0.6    c-0.1,0.2-0.1,0.5-0.1,0.8c0,0.5,0.1,0.8,0.3,1.1c0.2,0.3,0.6,0.4,1,0.4c0.3,0,0.6-0.1,0.9-0.3c0.3-0.2,0.6-0.4,0.8-0.7L327,424    L327,424z M325,416.6c0,0.4-0.1,0.7-0.4,0.9c-0.2,0.3-0.5,0.4-0.9,0.4c-0.4,0-0.6-0.1-0.9-0.4c-0.2-0.3-0.4-0.6-0.4-0.9    c0-0.4,0.1-0.7,0.4-0.9c0.2-0.3,0.5-0.4,0.9-0.4c0.4,0,0.7,0.1,0.9,0.4C324.9,415.9,325,416.2,325,416.6L325,416.6z M328.9,416.6    c0,0.4-0.1,0.7-0.4,0.9c-0.2,0.3-0.5,0.4-0.9,0.4c-0.4,0-0.6-0.1-0.9-0.4c-0.2-0.3-0.4-0.6-0.4-0.9c0-0.4,0.1-0.7,0.4-0.9    c0.2-0.3,0.5-0.4,0.9-0.4c0.4,0,0.6,0.1,0.9,0.4C328.8,415.9,328.9,416.2,328.9,416.6L328.9,416.6z M336.6,428.3    c-0.6,0.3-1.2,0.4-1.9,0.4c-0.5,0-0.9-0.1-1.2-0.2c-0.3-0.1-0.6-0.3-0.8-0.5c-0.2-0.2-0.3-0.5-0.4-0.8c-0.1-0.3-0.1-0.6-0.1-1    v-5.9h-1.1v-1.4h1.1c0-0.4,0-0.8,0-1.2c0-0.4,0-0.8,0.1-1.1l2.1-0.5c-0.1,0.4-0.1,0.8-0.1,1.4c0,0.5,0,1,0,1.5h2.3l-0.5,1.4h-1.8    v5.4c0,0.6,0.1,1,0.2,1.2c0.2,0.2,0.5,0.3,0.9,0.3c0.3,0,0.5-0.1,0.9-0.2L336.6,428.3L336.6,428.3z M280.8,442.5    c0,0.5,0,0.9-0.1,1.2c-0.1,0.3-0.3,0.6-0.5,0.8c-0.3,0.2-0.6,0.4-1,0.5c-0.4,0.1-0.8,0.2-1.4,0.2c-0.7,0-1.2-0.1-1.6-0.3    c-0.4-0.2-0.7-0.5-1-1c-0.1-0.2-0.2-0.4-0.2-0.7c0-0.3,0-0.5,0-0.7v-6.3h1v5.9c0,0.2,0,0.5,0,0.7c0,0.2,0.1,0.4,0.1,0.6    c0,0.1,0.1,0.2,0.2,0.3c0.1,0.1,0.2,0.2,0.3,0.3c0.1,0.1,0.3,0.2,0.5,0.2c0.2,0.1,0.4,0.1,0.7,0.1c0.4,0,0.7,0,1-0.1    c0.3-0.1,0.5-0.2,0.6-0.4c0.1-0.2,0.2-0.4,0.3-0.6c0-0.2,0.1-0.5,0.1-0.8v-6.1h1V442.5L280.8,442.5z M286.8,445v-4.3    c0-0.2,0-0.3,0-0.4c0-0.1,0-0.2,0-0.3c0-0.1,0-0.1-0.1-0.2c0-0.1-0.1-0.1-0.1-0.2c-0.2-0.2-0.4-0.3-0.7-0.3c-0.1,0-0.3,0-0.4,0.1    c-0.2,0-0.3,0.1-0.5,0.2c-0.2,0.1-0.3,0.2-0.5,0.3c-0.2,0.1-0.3,0.2-0.4,0.3v4.8h-1v-4.9c0-0.4,0-0.7-0.1-1    c-0.1-0.2-0.1-0.4-0.1-0.4l1-0.3c0,0,0.1,0.2,0.1,0.4c0.1,0.2,0.1,0.4,0.1,0.6c0.7-0.7,1.3-1,2-1c0.4,0,0.7,0.1,1,0.3    c0.3,0.2,0.5,0.4,0.6,0.7c0.1,0.2,0.2,0.5,0.2,0.7v4.9H286.8L286.8,445z M290.3,445v-6.4l1-0.2v6.5H290.3L290.3,445z M291.6,436.6    c0,0.2-0.1,0.4-0.2,0.6c-0.1,0.2-0.3,0.2-0.6,0.2c-0.2,0-0.4-0.1-0.6-0.2c-0.1-0.1-0.2-0.3-0.2-0.5c0-0.2,0.1-0.4,0.2-0.6    c0.1-0.2,0.3-0.2,0.6-0.2c0.2,0,0.4,0.1,0.6,0.2C291.5,436.2,291.6,436.4,291.6,436.6L291.6,436.6z M295.9,445.1h-1l-2.3-6.4    l1-0.2l1.5,4.4c0.1,0.2,0.1,0.5,0.2,0.7c0.1,0.2,0.1,0.4,0.1,0.4h0c0-0.1,0-0.2,0.1-0.4c0-0.2,0.1-0.4,0.2-0.7l1.5-4.3h1.1    L295.9,445.1L295.9,445.1z M300.4,442v0.2c0,0.3,0,0.6,0.1,0.8c0,0.2,0.1,0.4,0.2,0.6c0.2,0.3,0.4,0.5,0.7,0.6    c0.3,0.1,0.6,0.2,0.9,0.2c0.6,0,1.1-0.2,1.6-0.6l0.4,0.6c-0.3,0.3-0.6,0.5-1,0.6c-0.4,0.1-0.8,0.2-1.2,0.2c-0.9,0-1.6-0.3-2.1-0.9    c-0.5-0.6-0.8-1.4-0.8-2.5c0-0.5,0.1-1,0.2-1.4c0.1-0.4,0.3-0.7,0.6-1c0.5-0.6,1.1-0.9,1.9-0.9c0.7,0,1.3,0.2,1.7,0.7    c0.1,0.1,0.3,0.3,0.3,0.4c0.1,0.2,0.2,0.3,0.2,0.5c0.1,0.2,0.1,0.4,0.1,0.7c0,0.3,0,0.6,0,1v0.1H300.4L300.4,442z M303.3,441.2    c0-0.4,0-0.6-0.1-0.9c0-0.2-0.1-0.4-0.2-0.6c-0.1-0.2-0.3-0.3-0.5-0.4c-0.2-0.1-0.4-0.2-0.7-0.2c-0.9,0-1.4,0.7-1.5,2H303.3    L303.3,441.2z M309,439.6c-0.1,0-0.2-0.1-0.3-0.1c-0.4,0-0.8,0.2-1.1,0.5c-0.1,0.1-0.2,0.3-0.3,0.4c-0.1,0.1-0.1,0.3-0.1,0.6v4h-1    v-4.9c0-0.4,0-0.7-0.1-1c-0.1-0.2-0.1-0.4-0.1-0.4l1-0.3c0,0.1,0.1,0.2,0.1,0.4c0.1,0.2,0.1,0.4,0.1,0.7c0.2-0.3,0.5-0.6,0.8-0.8    c0.3-0.2,0.6-0.3,1-0.3c0.1,0,0.1,0,0.2,0c0.1,0,0.1,0,0.1,0L309,439.6L309,439.6z M314.6,443.1c0,0.3-0.1,0.6-0.2,0.8    c-0.1,0.3-0.3,0.5-0.5,0.7c-0.2,0.2-0.5,0.3-0.8,0.4c-0.3,0.1-0.6,0.2-1,0.2c-0.4,0-0.8-0.1-1.2-0.2c-0.4-0.1-0.8-0.3-1.1-0.5    l0.4-0.7c0.7,0.4,1.3,0.6,2,0.6c0.4,0,0.7-0.1,0.9-0.3c0.2-0.2,0.4-0.5,0.4-0.8c0-0.3-0.1-0.5-0.3-0.7c-0.2-0.2-0.4-0.3-0.8-0.4    l-0.8-0.2c-0.5-0.1-0.9-0.3-1.2-0.6c-0.3-0.3-0.4-0.7-0.4-1.1c0-0.3,0.1-0.6,0.2-0.8c0.1-0.2,0.3-0.4,0.5-0.6    c0.2-0.2,0.4-0.3,0.7-0.4c0.3-0.1,0.6-0.1,0.9-0.1s0.7,0,1,0.1c0.3,0.1,0.7,0.2,0.9,0.4l-0.4,0.7c-0.3-0.1-0.5-0.2-0.8-0.3    s-0.5-0.1-0.8-0.1c-0.4,0-0.7,0.1-0.9,0.3c-0.2,0.2-0.3,0.4-0.3,0.8c0,0.2,0.1,0.4,0.2,0.6c0.1,0.1,0.4,0.3,0.7,0.3l0.8,0.2    C314.1,441.6,314.6,442.2,314.6,443.1L314.6,443.1z M316.4,445v-6.4l1-0.2v6.5H316.4L316.4,445z M317.7,436.6    c0,0.2-0.1,0.4-0.2,0.6c-0.1,0.2-0.3,0.2-0.6,0.2c-0.2,0-0.4-0.1-0.6-0.2c-0.1-0.1-0.2-0.3-0.2-0.5c0-0.2,0.1-0.4,0.2-0.6    c0.1-0.2,0.3-0.2,0.6-0.2c0.2,0,0.4,0.1,0.6,0.2C317.7,436.2,317.7,436.4,317.7,436.6L317.7,436.6z M322.2,439.4h-1.3v4.1    c0,0.4,0.1,0.6,0.2,0.7c0.1,0.1,0.3,0.2,0.6,0.2c0.1,0,0.3,0,0.4,0c0.1,0,0.2-0.1,0.3-0.1l0.1,0.6c-0.3,0.2-0.7,0.3-1.1,0.3    c-0.2,0-0.3,0-0.5,0c-0.1,0-0.3-0.1-0.4-0.1c-0.2-0.1-0.4-0.3-0.5-0.5c-0.1-0.2-0.1-0.5-0.1-0.8v-4.4h-0.8v-0.8h0.8    c0-0.1,0-0.3,0-0.5c0-0.2,0-0.3,0-0.5c0-0.2,0-0.3,0-0.4c0-0.1,0-0.2,0-0.3l1.1-0.2c0,0.1,0,0.1,0,0.3c0,0.1,0,0.3,0,0.4    c0,0.2,0,0.4,0,0.6c0,0.2,0,0.4,0,0.6h1.6L322.2,439.4L322.2,439.4z M328.2,445.3c-0.2-0.1-0.4-0.2-0.6-0.4    c-0.1-0.2-0.3-0.4-0.3-0.6c-0.3,0.3-0.6,0.5-0.9,0.7c-0.3,0.1-0.6,0.2-1,0.2c-0.4,0-0.7-0.1-1-0.2c-0.3-0.1-0.5-0.3-0.6-0.4    c-0.2-0.2-0.3-0.4-0.3-0.6c-0.1-0.2-0.1-0.4-0.1-0.6c0-0.7,0.3-1.3,0.9-1.7c0.6-0.4,1.4-0.6,2.5-0.6h0.2c0.1,0,0.2,0,0.3,0v-0.4    c0-0.3,0-0.5,0-0.6c0-0.1-0.1-0.3-0.2-0.4c-0.1-0.1-0.2-0.2-0.4-0.3s-0.3-0.1-0.5-0.1c-0.2,0-0.4,0-0.6,0.1    c-0.2,0-0.4,0.1-0.6,0.2c-0.2,0.1-0.4,0.2-0.5,0.2c-0.2,0.1-0.3,0.2-0.4,0.3l-0.5-0.7c0.9-0.6,1.8-0.9,2.7-0.9    c0.9,0,1.5,0.3,1.8,1c0.1,0.2,0.1,0.4,0.1,0.6c0,0.2,0,0.5,0,0.8l-0.1,2.1c0,0.3,0,0.5,0,0.6c0,0.2,0,0.3,0.1,0.4    c0,0.1,0.1,0.2,0.2,0.3c0.1,0.1,0.2,0.1,0.3,0.2L328.2,445.3L328.2,445.3z M327.2,441.8c-0.1,0-0.2,0-0.3,0c-0.1,0-0.2,0-0.3,0    c-0.4,0-0.7,0-1,0.1c-0.3,0.1-0.5,0.2-0.7,0.3c-0.2,0.1-0.3,0.3-0.4,0.5c-0.1,0.2-0.1,0.4-0.1,0.6c0,0.8,0.4,1.2,1.1,1.2    c0.3,0,0.6-0.1,0.9-0.3c0.3-0.2,0.5-0.4,0.6-0.7L327.2,441.8L327.2,441.8z M325.5,437c0,0.2-0.1,0.3-0.2,0.5    c-0.1,0.1-0.3,0.2-0.5,0.2c-0.2,0-0.3-0.1-0.5-0.2c-0.1-0.1-0.2-0.3-0.2-0.5c0-0.2,0.1-0.3,0.2-0.5c0.1-0.1,0.3-0.2,0.5-0.2    c0.2,0,0.3,0.1,0.5,0.2C325.4,436.7,325.5,436.9,325.5,437L325.5,437z M328.2,437c0,0.2-0.1,0.3-0.2,0.5c-0.1,0.1-0.3,0.2-0.5,0.2    c-0.2,0-0.3-0.1-0.5-0.2c-0.1-0.1-0.2-0.3-0.2-0.5c0-0.2,0.1-0.3,0.2-0.5c0.1-0.1,0.3-0.2,0.5-0.2c0.2,0,0.3,0.1,0.5,0.2    C328.1,436.7,328.2,436.9,328.2,437L328.2,437z M333,439.4h-1.3v4.1c0,0.4,0.1,0.6,0.2,0.7c0.1,0.1,0.3,0.2,0.6,0.2    c0.1,0,0.3,0,0.4,0c0.1,0,0.2-0.1,0.3-0.1l0.1,0.6c-0.3,0.2-0.7,0.3-1.1,0.3c-0.2,0-0.3,0-0.5,0c-0.1,0-0.3-0.1-0.4-0.1    c-0.2-0.1-0.4-0.3-0.5-0.5c-0.1-0.2-0.1-0.5-0.1-0.8v-4.4h-0.8v-0.8h0.8c0-0.1,0-0.3,0-0.5c0-0.2,0-0.3,0-0.5c0-0.2,0-0.3,0-0.4    c0-0.1,0-0.2,0-0.3l1.1-0.2c0,0.1,0,0.1,0,0.3c0,0.1,0,0.3,0,0.4c0,0.2,0,0.4,0,0.6c0,0.2,0,0.4,0,0.6h1.6L333,439.4L333,439.4z     M344.8,445l-0.5-6.5c0-0.1,0-0.3,0-0.5c0-0.2,0-0.3,0-0.5c0-0.1,0-0.3,0-0.4c0-0.1,0-0.2,0-0.2c0,0,0,0.1,0,0.2    c0,0.1,0,0.2-0.1,0.3c0,0.1-0.1,0.3-0.1,0.4c0,0.1-0.1,0.3-0.1,0.4L342,445h-0.9l-1.7-6.3c-0.1-0.4-0.2-0.8-0.3-1.1    c-0.1-0.3-0.1-0.5-0.1-0.6c0,0,0,0.1,0,0.2c0,0.1,0,0.3,0,0.4c0,0.2,0,0.3,0,0.5c0,0.2,0,0.3,0,0.5l-0.5,6.3h-1l0.8-8.8h1.5    l1.6,5.8c0.1,0.4,0.2,0.8,0.3,1c0.1,0.3,0.1,0.4,0.1,0.5c0,0,0-0.2,0.1-0.5c0.1-0.3,0.1-0.6,0.2-1l1.7-5.9h1.6l0.8,8.8H344.8    L344.8,445z M352.4,445.3c-0.2-0.2-0.4-0.3-0.5-0.5c-0.1-0.1-0.2-0.3-0.2-0.5c-0.5,0.7-1.2,1-2,1c-0.4,0-0.8-0.1-1-0.2    c-0.3-0.2-0.5-0.4-0.6-0.7c-0.1-0.1-0.1-0.3-0.1-0.4c0-0.2,0-0.3,0-0.5v-4.7l1-0.2v4.6c0,0.3,0,0.5,0.1,0.7    c0.1,0.2,0.2,0.3,0.3,0.4c0.1,0.1,0.2,0.1,0.4,0.2c0.1,0,0.3,0.1,0.4,0.1c0.3,0,0.6-0.1,0.9-0.3c0.3-0.2,0.5-0.5,0.7-0.8v-4.5    l1-0.2v4.7c0,0.4,0,0.7,0.1,0.9c0.1,0.2,0.2,0.4,0.3,0.5L352.4,445.3L352.4,445.3z M349.5,437c0,0.2-0.1,0.3-0.2,0.5    c-0.1,0.1-0.3,0.2-0.5,0.2c-0.2,0-0.3-0.1-0.5-0.2c-0.1-0.1-0.2-0.3-0.2-0.5c0-0.2,0.1-0.3,0.2-0.5c0.1-0.1,0.3-0.2,0.5-0.2    c0.2,0,0.3,0.1,0.5,0.2C349.5,436.7,349.5,436.9,349.5,437L349.5,437z M352.2,437c0,0.2-0.1,0.3-0.2,0.5c-0.1,0.1-0.3,0.2-0.5,0.2    s-0.3-0.1-0.5-0.2c-0.1-0.1-0.2-0.3-0.2-0.5c0-0.2,0.1-0.3,0.2-0.5c0.1-0.1,0.3-0.2,0.5-0.2c0.2,0,0.3,0.1,0.5,0.2    C352.1,436.7,352.2,436.9,352.2,437L352.2,437z M358.6,445v-4.3c0-0.2,0-0.3,0-0.4c0-0.1,0-0.2,0-0.3c0-0.1,0-0.1-0.1-0.2    c0-0.1-0.1-0.1-0.1-0.2c-0.2-0.2-0.4-0.3-0.7-0.3c-0.1,0-0.3,0-0.4,0.1c-0.2,0-0.3,0.1-0.5,0.2c-0.2,0.1-0.3,0.2-0.5,0.3    c-0.2,0.1-0.3,0.2-0.4,0.3v4.8h-1v-4.9c0-0.4,0-0.7-0.1-1c-0.1-0.2-0.1-0.4-0.1-0.4l1-0.3c0,0,0.1,0.2,0.1,0.4    c0.1,0.2,0.1,0.4,0.1,0.6c0.7-0.7,1.3-1,2-1c0.4,0,0.7,0.1,1,0.3c0.3,0.2,0.5,0.4,0.6,0.7c0.1,0.2,0.2,0.5,0.2,0.7v4.9H358.6    L358.6,445z M366.3,443.1c0,0.3-0.1,0.6-0.2,0.8c-0.1,0.3-0.3,0.5-0.5,0.7c-0.2,0.2-0.5,0.3-0.8,0.4c-0.3,0.1-0.6,0.2-1,0.2    c-0.4,0-0.8-0.1-1.2-0.2c-0.4-0.1-0.8-0.3-1.1-0.5l0.4-0.7c0.7,0.4,1.3,0.6,2,0.6c0.4,0,0.7-0.1,0.9-0.3c0.2-0.2,0.4-0.5,0.4-0.8    c0-0.3-0.1-0.5-0.3-0.7c-0.2-0.2-0.4-0.3-0.8-0.4l-0.8-0.2c-0.5-0.1-0.9-0.3-1.2-0.6c-0.3-0.3-0.4-0.7-0.4-1.1    c0-0.3,0.1-0.6,0.2-0.8c0.1-0.2,0.3-0.4,0.5-0.6c0.2-0.2,0.4-0.3,0.7-0.4c0.3-0.1,0.6-0.1,0.9-0.1c0.3,0,0.7,0,1,0.1    c0.3,0.1,0.7,0.2,0.9,0.4l-0.4,0.7c-0.3-0.1-0.5-0.2-0.8-0.3c-0.3-0.1-0.5-0.1-0.8-0.1c-0.4,0-0.7,0.1-0.9,0.3    c-0.2,0.2-0.3,0.4-0.3,0.8c0,0.2,0.1,0.4,0.2,0.6c0.1,0.1,0.4,0.3,0.7,0.3l0.8,0.2C365.7,441.6,366.3,442.2,366.3,443.1    L366.3,443.1z M370.5,439.4h-1.3v4.1c0,0.4,0.1,0.6,0.2,0.7c0.1,0.1,0.3,0.2,0.6,0.2c0.1,0,0.3,0,0.4,0c0.1,0,0.2-0.1,0.3-0.1    l0.1,0.6c-0.3,0.2-0.7,0.3-1.1,0.3c-0.2,0-0.3,0-0.5,0c-0.1,0-0.3-0.1-0.4-0.1c-0.2-0.1-0.4-0.3-0.5-0.5c-0.1-0.2-0.1-0.5-0.1-0.8    v-4.4h-0.8v-0.8h0.8c0-0.1,0-0.3,0-0.5c0-0.2,0-0.3,0-0.5c0-0.2,0-0.3,0-0.4c0-0.1,0-0.2,0-0.3l1.1-0.2c0,0.1,0,0.1,0,0.3    c0,0.1,0,0.3,0,0.4c0,0.2,0,0.4,0,0.6c0,0.2,0,0.4,0,0.6h1.6L370.5,439.4L370.5,439.4z M373,442v0.2c0,0.3,0,0.6,0.1,0.8    c0,0.2,0.1,0.4,0.2,0.6c0.2,0.3,0.4,0.5,0.7,0.6c0.3,0.1,0.6,0.2,0.9,0.2c0.6,0,1.1-0.2,1.6-0.6l0.4,0.6c-0.3,0.3-0.6,0.5-1,0.6    c-0.4,0.1-0.8,0.2-1.2,0.2c-0.9,0-1.6-0.3-2.1-0.9c-0.5-0.6-0.8-1.4-0.8-2.5c0-0.5,0.1-1,0.2-1.4c0.1-0.4,0.3-0.7,0.6-1    c0.5-0.6,1.1-0.9,1.9-0.9c0.7,0,1.3,0.2,1.7,0.7c0.1,0.1,0.3,0.3,0.3,0.4c0.1,0.2,0.2,0.3,0.2,0.5c0.1,0.2,0.1,0.4,0.1,0.7    c0,0.3,0,0.6,0,1v0.1H373L373,442z M375.9,441.2c0-0.4,0-0.6-0.1-0.9c0-0.2-0.1-0.4-0.2-0.6c-0.1-0.2-0.3-0.3-0.5-0.4    c-0.2-0.1-0.4-0.2-0.7-0.2c-0.9,0-1.4,0.7-1.5,2H375.9L375.9,441.2z M381.6,439.6c-0.1,0-0.2-0.1-0.3-0.1c-0.4,0-0.8,0.2-1.1,0.5    c-0.1,0.1-0.2,0.3-0.3,0.4c-0.1,0.1-0.1,0.3-0.1,0.6v4h-1v-4.9c0-0.4,0-0.7-0.1-1c-0.1-0.2-0.1-0.4-0.1-0.4l1-0.3    c0,0.1,0.1,0.2,0.1,0.4c0.1,0.2,0.1,0.4,0.1,0.7c0.2-0.3,0.5-0.6,0.8-0.8c0.3-0.2,0.6-0.3,1-0.3c0.1,0,0.1,0,0.2,0    c0.1,0,0.1,0,0.1,0L381.6,439.6L381.6,439.6z M292.4,404.8v0.2c0,0.3,0,0.7,0.1,1c0.1,0.3,0.2,0.6,0.4,0.9    c0.2,0.3,0.4,0.5,0.7,0.6c0.3,0.2,0.7,0.2,1.1,0.2c0.9,0,1.6-0.3,2.4-0.9l0.8,1.3c-1,0.8-2.1,1.3-3.4,1.3c-0.7,0-1.3-0.1-1.8-0.3    c-0.5-0.2-1-0.6-1.4-1c-0.4-0.4-0.7-1-0.9-1.6c-0.2-0.6-0.3-1.3-0.3-2.1c0-0.8,0.1-1.6,0.3-2.1c0.2-0.6,0.5-1.1,0.9-1.6    c0.4-0.4,0.8-0.8,1.3-1c0.5-0.2,1-0.3,1.6-0.3c0.5,0,0.9,0.1,1.4,0.2c0.4,0.1,0.9,0.4,1.3,0.8c0.4,0.4,0.7,0.9,0.9,1.5    c0.2,0.6,0.3,1.5,0.3,2.6v0.4H292.4L292.4,404.8z M296,403.3c0-0.8-0.2-1.4-0.5-1.8c-0.3-0.4-0.7-0.6-1.3-0.6    c-0.6,0-1,0.2-1.3,0.6c-0.3,0.4-0.5,1-0.5,1.8H296L296,403.3z M306.4,409c0-0.1-0.1-0.2-0.1-0.3c0-0.1,0-0.2-0.1-0.4    c-0.6,0.6-1.4,0.9-2.3,0.9c-0.6,0-1.1-0.1-1.6-0.3c-0.5-0.2-0.9-0.6-1.2-1c-0.3-0.4-0.6-0.9-0.8-1.5c-0.2-0.6-0.3-1.3-0.3-2    c0-0.8,0.1-1.4,0.3-2.1s0.5-1.1,0.8-1.6c0.4-0.4,0.8-0.8,1.3-1c0.5-0.2,1-0.4,1.6-0.4c0.8,0,1.5,0.3,2.1,0.9c0-0.1,0-0.3,0-0.6    c0-0.3,0-0.6,0-1v-3.5l2.1,0.3v10.2c0,0.9,0,1.7,0.1,2.2c0.1,0.5,0.1,0.9,0.2,1.1H306.4L306.4,409z M306,401.7    c-0.5-0.5-1.1-0.8-1.7-0.8c-0.7,0-1.2,0.3-1.5,0.8c-0.3,0.5-0.5,1.4-0.5,2.5c0,1.1,0.1,1.8,0.4,2.4c0.3,0.5,0.8,0.8,1.6,0.8    c0.4,0,0.7-0.1,1-0.3c0.3-0.2,0.5-0.4,0.6-0.6V401.7L306,401.7z M311.2,409v-9.4l2.1-0.4v9.8H311.2L311.2,409z M313.7,396.7    c0,0.4-0.1,0.7-0.4,1c-0.3,0.3-0.6,0.4-1,0.4c-0.4,0-0.7-0.1-1-0.4c-0.3-0.3-0.4-0.6-0.4-1c0-0.4,0.1-0.7,0.4-1    c0.3-0.3,0.6-0.4,1-0.4c0.4,0,0.7,0.1,1,0.4C313.5,395.9,313.7,396.3,313.7,396.7L313.7,396.7z M322.4,409h-6.7v-1.4l4.8-6.7h-4.4    v-1.5h6.7v1.5l-4.5,6.6h4.7L322.4,409L322.4,409z M325.2,409v-9.4l2.1-0.4v9.8H325.2L325.2,409z M327.6,396.7c0,0.4-0.1,0.7-0.4,1    c-0.3,0.3-0.6,0.4-1,0.4c-0.4,0-0.7-0.1-1-0.4c-0.3-0.3-0.4-0.6-0.4-1c0-0.4,0.1-0.7,0.4-1c0.3-0.3,0.6-0.4,1-0.4    c0.4,0,0.7,0.1,1,0.4C327.5,395.9,327.6,396.3,327.6,396.7L327.6,396.7z M335.7,409v-6.3c0-0.7-0.1-1.1-0.2-1.3    c-0.2-0.2-0.4-0.3-0.8-0.3c-0.3,0-0.6,0.1-1,0.3c-0.4,0.2-0.7,0.5-1.1,0.8v6.9h-2v-7c0-0.5,0-0.9-0.1-1.3c-0.1-0.3-0.1-0.7-0.3-1    l1.9-0.5c0.1,0.2,0.2,0.4,0.3,0.6c0.1,0.2,0.1,0.5,0.1,0.7c0.5-0.4,1-0.8,1.5-1c0.5-0.2,0.9-0.3,1.5-0.3c0.7,0,1.3,0.2,1.8,0.7    c0.5,0.4,0.7,1.1,0.7,2v7.1H335.7L335.7,409z M340.9,409v-9.4l2.1-0.4v9.8H340.9L340.9,409z M343.4,396.7c0,0.4-0.1,0.7-0.4,1    c-0.3,0.3-0.6,0.4-1,0.4c-0.4,0-0.7-0.1-1-0.4c-0.3-0.3-0.4-0.6-0.4-1c0-0.4,0.1-0.7,0.4-1c0.3-0.3,0.6-0.4,1-0.4    c0.4,0,0.7,0.1,1,0.4C343.2,395.9,343.4,396.3,343.4,396.7L343.4,396.7z M352.7,406c0,0.5-0.1,0.9-0.3,1.3c-0.2,0.4-0.5,0.7-0.8,1    c-0.3,0.3-0.7,0.5-1.2,0.7c-0.5,0.2-1,0.2-1.6,0.2c-0.6,0-1.2-0.1-1.8-0.3c-0.6-0.2-1.2-0.4-1.8-0.8l0.7-1.5    c0.4,0.3,0.9,0.5,1.5,0.7c0.5,0.2,1.1,0.3,1.6,0.3c0.5,0,0.8-0.1,1.1-0.4c0.3-0.2,0.4-0.6,0.4-1c0-0.4-0.1-0.7-0.4-0.9    c-0.2-0.2-0.6-0.4-1.2-0.5l-1.1-0.2c-0.7-0.2-1.3-0.5-1.7-0.9c-0.4-0.5-0.6-1-0.6-1.7c0-0.5,0.1-0.9,0.3-1.2    c0.2-0.4,0.4-0.7,0.7-1c0.3-0.3,0.7-0.5,1.1-0.6c0.4-0.2,0.9-0.2,1.4-0.2c0.7,0,1.2,0.1,1.8,0.3c0.5,0.2,1,0.4,1.4,0.6l-0.7,1.4    c-0.4-0.2-0.8-0.4-1.2-0.5c-0.4-0.1-0.7-0.2-1.1-0.2c-0.4,0-0.8,0.1-1.1,0.3c-0.3,0.2-0.4,0.5-0.4,0.9c0,0.3,0.1,0.5,0.3,0.7    c0.2,0.2,0.5,0.3,1,0.4l1.2,0.3c0.5,0.1,0.9,0.3,1.2,0.5c0.3,0.2,0.6,0.4,0.7,0.6c0.2,0.2,0.3,0.5,0.4,0.7    C352.7,405.5,352.7,405.7,352.7,406L352.7,406z M361.7,408c-0.4,0.4-0.9,0.8-1.4,1c-0.5,0.2-1,0.3-1.7,0.3c-1.3,0-2.3-0.4-3-1.3    c-0.7-0.9-1-2.1-1-3.6c0-0.9,0.1-1.6,0.4-2.3c0.2-0.6,0.6-1.2,0.9-1.6c0.4-0.4,0.8-0.7,1.3-1c0.5-0.2,1-0.3,1.6-0.3s1,0.1,1.4,0.2    c0.4,0.1,0.8,0.4,1.2,0.8l-1,1.4c-0.5-0.5-1.1-0.7-1.6-0.7c-0.7,0-1.2,0.3-1.5,1c-0.1,0.3-0.2,0.7-0.3,1.1c-0.1,0.4-0.1,1-0.1,1.6    c0,1.3,0.2,2.1,0.6,2.6c0.3,0.4,0.7,0.5,1.3,0.5c0.7,0,1.3-0.3,1.9-0.9L361.7,408L361.7,408z M369.5,409v-6.5c0-0.6-0.1-1-0.3-1.2    c-0.2-0.2-0.5-0.3-0.9-0.3c-0.4,0-0.8,0.1-1.2,0.3c-0.4,0.2-0.8,0.5-1.1,0.8v6.8h-2.1v-11.3c0-0.4,0-0.8,0-1.2    c0-0.4-0.1-0.7-0.1-0.9l2.1-0.5c0.1,0.3,0.1,0.6,0.1,1c0,0.4,0,0.8,0,1.3v2c0,0.3,0,0.5,0,0.7c0,0.2,0,0.3,0,0.4    c0.9-0.8,1.9-1.2,2.9-1.2c0.6,0,1.1,0.1,1.5,0.3c0.4,0.2,0.7,0.5,0.9,0.8c0.1,0.2,0.2,0.5,0.3,0.8c0,0.3,0.1,0.6,0.1,1.1v6.7    H369.5L369.5,409z M376.4,404.8v0.2c0,0.3,0,0.7,0.1,1c0.1,0.3,0.2,0.6,0.4,0.9c0.2,0.3,0.4,0.5,0.7,0.6c0.3,0.2,0.7,0.2,1.1,0.2    c0.9,0,1.6-0.3,2.4-0.9l0.8,1.3c-1,0.8-2.1,1.3-3.4,1.3c-0.7,0-1.3-0.1-1.8-0.3c-0.5-0.2-1-0.6-1.4-1c-0.4-0.4-0.7-1-0.9-1.6    c-0.2-0.6-0.3-1.3-0.3-2.1c0-0.8,0.1-1.6,0.3-2.1c0.2-0.6,0.5-1.1,0.9-1.6c0.4-0.4,0.8-0.8,1.3-1c0.5-0.2,1-0.3,1.6-0.3    c0.5,0,0.9,0.1,1.4,0.2c0.4,0.1,0.9,0.4,1.3,0.8c0.4,0.4,0.7,0.9,0.9,1.5c0.2,0.6,0.3,1.5,0.3,2.6v0.4H376.4L376.4,404.8z     M379.9,403.3c0-0.8-0.2-1.4-0.5-1.8c-0.3-0.4-0.7-0.6-1.3-0.6c-0.6,0-1,0.2-1.3,0.6c-0.3,0.4-0.5,1-0.5,1.8H379.9L379.9,403.3z"></path>
		<path class="st0" d="M212.8,433.9L212.8,433.9l0.2,1.8c1.4,4.4,5.7,7.5,12,10.3c2.6-1.1,5.5-2.1,8.7-3c0.7-0.2,1.4-0.4,2.2-0.6    c-9.2-2.7-17.8-5.9-22-11.3C213.3,432,212.9,432.9,212.8,433.9L212.8,433.9z M235.9,450c0.8,0.3,1.6,0.5,2.4,0.8    c11.2,3.5,20,6.1,21,12.6l0.7-5.9c-0.3-4.2-5.5-8.2-13.3-11.4C243.6,447.4,239.9,448.7,235.9,450L235.9,450z M212.9,406l0,0.3    c1.4,4.4,5.8,7.6,12.3,10.4c2.6-1.1,5.4-2,8.4-2.9c0.8-0.2,1.7-0.5,2.5-0.7c-9.7-2.8-18.7-6-22.8-11.9    C213,402.3,212.8,403.9,212.9,406L212.9,406z M236.1,420.7c0.7,0.2,1.4,0.4,2.1,0.7c9.5,3,17.2,5.2,20,9.8c0.7-0.9,1.3-1.9,1.8-3    l0,0l0,0l0-0.1c-0.3-4.2-5.4-8.1-13-11.3C243.8,418,240.2,419.3,236.1,420.7L236.1,420.7z M248.8,389.1c-0.7,0-1.3-0.6-1.3-1.4    c0-0.7,0.6-1.3,1.3-1.3c0.7,0,1.3,0.6,1.3,1.3C250.2,388.5,249.6,389.1,248.8,389.1L248.8,389.1z M260,398.7L260,398.7L260,398.7    L260,398.7L260,398.7z M260,398.7c0-2-0.2-3.9-0.2-3.9c0-9.4-13.8-13.2-18.5-14.8c-0.2,0.6-0.5,3.5-0.3,5c0.2,1.3,0.4,5.6,7,8.6    c4.7,2.1,7.1,3.1,8.2,3.9c0.7,0.5,1.8,1.5,2.4,3.6C259.2,400.4,259.7,399.6,260,398.7L260,398.7z"></path>
		<path class="st1" d="M223.2,389c-0.7,0-1.3-0.6-1.3-1.3c0-0.7,0.6-1.3,1.3-1.3c0.7,0,1.3,0.6,1.3,1.3    C224.6,388.4,224,389,223.2,389L223.2,389z M233.7,413.8c-12.2,3.5-21.3,8.6-21.7,14.3l0.7,6c1.1-6.5,9.8-9,21-12.6    c13.5-4.3,23-8.1,25.3-15.1l1-7.6v0C256.8,406.7,245.4,410.4,233.7,413.8L233.7,413.8z M233.7,443c-12.2,3.5-21.3,8.6-21.7,14.3    l0.7,5.9c1.1-6.5,9.8-9,21-12.6c13.5-4.3,23-8.1,25.3-15.1l0.9-7.3l0-0.3l0,0C256.7,436,245.4,439.7,233.7,443L233.7,443z     M230.7,380c-4.4,1.5-16.8,4.9-18.3,13.2c-0.7,4-0.2,9.3,0.7,13.1c-0.5-5.7,1.7-7.9,2.8-8.7c1-0.8,3.5-1.8,8.2-4    c6.6-3,6.8-7.3,7-8.6C231.1,383.5,230.8,380.6,230.7,380L230.7,380z"></path>
	</g>
</g>
</svg>
